<?xml version="1.0" encoding="iso-8859-1"?>
<!-- Generator: Adobe Illustrator 19.0.0, SVG Export Plug-In . SVG Version: 6.00 Build 0)  -->
<svg version="1.1" id="Capa_1" xmlns="http://www.w3.org/2000/svg" xmlns:xlink="http://www.w3.org/1999/xlink" x="0px" y="0px"
	 viewBox="0 0 512 512" style="enable-background:new 0 0 512 512;" xml:space="preserve">
<path style="fill:#FF7C96;" d="M263.654,88.352c-34.821,0-65.438,18.611-82.849,46.527c-17.411-27.916-47.729-46.527-82.548-46.527
	C40.925,88.352,0,133.678,0,198.816c0,67.84,49.028,108.664,115.368,165.697c11.707,9.905,24.314,20.712,37.522,32.418
	l27.916,26.716l44.125-37.222c28.517-25.216,53.432-47.128,74.445-67.84c32.119-31.217,61.536-67.239,61.536-119.77
	C360.911,133.678,320.987,88.352,263.654,88.352z"/>
<path style="fill:#FF5C7D;" d="M360.911,198.816c0,52.531-29.416,88.552-61.536,119.77c-21.012,20.712-45.928,42.624-74.445,67.84
	l-44.125,37.222V134.879c17.411-27.916,48.027-46.527,82.849-46.527C320.987,88.352,360.911,133.678,360.911,198.816z"/>
<g>
	<path style="fill:#78FCF8;" d="M451.965,268.457H210.824V238.44h241.141c16.548,0,30.018-13.47,30.018-30.018
		s-13.47-30.018-30.018-30.018c-16.548,0-30.018,13.47-30.018,30.018H391.93c0-33.11,26.925-60.035,60.035-60.035
		S512,175.312,512,208.422S485.075,268.457,451.965,268.457z"/>
	<path style="fill:#78FCF8;" d="M391.93,418.545c-33.11,0-61.036-26.925-61.036-60.035h30.018c0,16.548,14.47,30.018,31.018,30.018
		s30.018-13.47,30.018-30.018c0-16.548-13.47-30.018-30.018-30.018H180.806v-30.018H391.93c33.11,0,60.035,26.925,60.035,60.035
		S425.04,418.545,391.93,418.545z"/>
</g>
<g>
</g>
<g>
</g>
<g>
</g>
<g>
</g>
<g>
</g>
<g>
</g>
<g>
</g>
<g>
</g>
<g>
</g>
<g>
</g>
<g>
</g>
<g>
</g>
<g>
</g>
<g>
</g>
<g>
</g>
</svg>
